<?xml version="1.0" encoding="UTF-8"?>
<svg width="126px" height="33px" viewBox="0 0 126 33" version="1.1" xmlns="http://www.w3.org/2000/svg" xmlns:xlink="http://www.w3.org/1999/xlink">
    <!-- Generator: Sketch 52.6 (67491) - http://www.bohemiancoding.com/sketch -->
    <title>Diners_Club_Logo3</title>
    <desc>Created with Sketch.</desc>
    <g id="02-ProductCategory" stroke="none" stroke-width="1" fill="none" fill-rule="evenodd">
        <g id="ProductCategory" transform="translate(-392.000000, -2457.000000)">
            <g id="footer" transform="translate(0.000000, 2153.000000)">
                <g id="Diners_Club_Logo3" transform="translate(392.000000, 304.000000)">
                    <path d="M24.3046116,32.867864 C33.2878422,32.91084 41.4872005,25.5416562 41.4872005,16.5767507 C41.4872005,6.77312768 33.2878422,-0.00326070079 24.3046116,6.3527471e-22 L16.57349,6.3527471e-22 C7.48265618,-0.00326070079 5.68434189e-14,6.77514932 5.68434189e-14,16.5767507 C5.68434189e-14,25.5436126 7.48265618,32.9109052 16.57349,32.867864 L24.3046116,32.867864 Z" id="Path" fill="#0079BE"></path>
                    <path d="M16.610075,1.35840795 C8.30311371,1.36101651 1.571723,8.09436365 1.56976658,16.4046509 C1.571723,24.7135034 8.3030485,31.4461984 16.610075,31.448807 C24.9189928,31.4461984 31.651753,24.7135034 31.6529269,16.4046509 C31.6516878,8.09436365 24.9189928,1.36101651 16.610075,1.35840795 Z M7.07643807,16.4046509 C7.08426375,12.3437741 9.62043683,8.88090989 13.1967735,7.50482894 L13.1967735,25.302386 C9.62043683,23.9270876 7.08419854,20.4661146 7.07643807,16.4046509 Z M20.0220724,25.3062988 L20.0220724,7.50424202 C23.5997133,8.87699705 26.1397992,12.3418177 26.1463206,16.4046509 C26.1397992,20.4687232 23.5997133,23.9309353 20.0220724,25.3062988 Z" id="Shape" fill="#FFFFFF" fill-rule="nonzero"></path>
                    <path d="M46.7553843,12.6035951 C46.7553843,11.0488277 45.9447089,11.1512137 45.1673578,11.1343233 L45.1672926,10.6849987 C45.8410186,10.7182579 46.531635,10.7182579 47.2066653,10.7182579 C47.9324973,10.7182579 48.9178811,10.6849987 50.1973148,10.6849987 C54.6723006,10.6849987 57.1093484,13.6744092 57.1093484,16.7354899 C57.1093484,18.4473578 56.1077263,22.7508307 49.9892821,22.7508307 C49.1082408,22.7508307 48.295022,22.7168542 47.4831075,22.7168542 C46.7057564,22.7168542 45.9447089,22.7338751 45.1672926,22.7508307 L45.1672926,22.3021583 C46.2036085,22.1977506 46.7057564,22.1632524 46.7553191,20.9874437 L46.7553191,12.6035951 L46.7553843,12.6035951 Z M48.4496444,20.7115884 C48.4496444,22.0426065 49.4011169,22.1978158 50.2475948,22.1978158 C53.9817494,22.1978158 55.2077729,19.3799182 55.2077729,16.8039646 C55.2077729,13.5726101 53.133315,11.2392526 49.7983355,11.2392526 C49.088807,11.2392526 48.7627369,11.2901196 48.4497096,11.3084447 L48.4496444,20.7115884 Z" id="Shape" fill="#211E1F" fill-rule="nonzero"></path>
                    <path d="M57.7158387,22.3022235 L58.0432131,22.3022235 C58.5264489,22.3022235 58.8728006,22.3022235 58.8728006,21.7302314 L58.8728006,17.046626 C58.8728006,16.2869479 58.6138357,16.181236 57.9741514,15.8375581 L57.9741514,15.5603985 C58.7860659,15.3164981 59.7552114,14.990428 59.8229688,14.9382568 C59.944919,14.86913 60.0479571,14.85087 60.1346918,14.85087 C60.2201874,14.85087 60.2559899,14.9552125 60.2559899,15.0941183 L60.2559899,21.7302314 C60.2559899,22.3022235 60.6361876,22.3022235 61.1200756,22.3022235 L61.4135386,22.3022235 L61.4135386,22.7515481 C60.825243,22.7515481 60.2201221,22.7170498 59.5992847,22.7170498 C58.977143,22.7170498 58.3543492,22.7340055 57.7159039,22.7515481 L57.7159039,22.3022235 L57.7158387,22.3022235 Z M59.5646561,12.1894208 C59.1147446,12.1894208 58.7182434,11.7747249 58.7182434,11.3253351 C58.7182434,10.8923141 59.1330045,10.4938564 59.5646561,10.4938564 C60.0126764,10.4938564 60.4117861,10.858468 60.4117861,11.3253351 C60.4117861,11.7922675 60.0303494,12.1894208 59.5646561,12.1894208 Z" id="Shape" fill="#211E1F" fill-rule="nonzero"></path>
                    <path d="M63.0554971,17.1496641 C63.0554971,16.5105667 62.8643548,16.3384017 62.0538098,16.0097231 L62.0538098,15.6817618 C62.7965975,15.4398178 63.5042348,15.2148295 64.3342788,14.8509353 C64.3858631,14.8509353 64.4366648,14.8861508 64.4366648,15.0237524 L64.4366648,16.1479768 C65.423418,15.4398178 66.2705481,14.85087 67.4299881,14.85087 C68.8973035,14.85087 69.4156897,15.9229232 69.4156897,17.270897 L69.4156897,21.7302966 C69.4156897,22.3022235 69.7958874,22.3022235 70.2804275,22.3022235 L70.5915636,22.3022235 L70.5915636,22.7515481 C69.985008,22.7515481 69.3805393,22.7170498 68.7597019,22.7170498 C68.1368428,22.7170498 67.5139837,22.7340055 66.8925594,22.7515481 L66.8925594,22.3022235 L67.2029781,22.3022235 C67.6881052,22.3022235 68.0319135,22.3022235 68.0319135,21.7302966 L68.0319135,17.2545934 C68.0319135,16.2679054 67.4299881,15.7846695 66.4432348,15.7846695 C65.8909373,15.7846695 65.0091786,16.2340593 64.4365996,16.614844 L64.4365996,21.7301661 C64.4365996,22.3021583 64.8186885,22.3021583 65.303359,22.3021583 L65.6137778,22.3021583 L65.6137778,22.7514828 C65.0091786,22.7514828 64.4033404,22.7169194 63.7812639,22.7169194 C63.1597091,22.7169194 62.5363283,22.7339403 61.9147736,22.7515481 L61.9147736,22.3021583 L62.2264966,22.3021583 C62.7103846,22.3021583 63.0553667,22.3021583 63.0553667,21.7301661 L63.0553667,17.1496641 L63.0554971,17.1496641 Z" id="Path" fill="#211E1F"></path>
                    <path d="M71.905626,17.9804254 C71.8696931,18.1363522 71.8696931,18.3951866 71.905626,18.983417 C72.0074251,20.6248538 73.0644791,21.9728927 74.4449946,21.9728927 C75.3964671,21.9728927 76.1412111,21.4544413 76.7797215,20.8153439 L77.0209482,21.0579401 C76.2254024,22.1117986 75.2405403,23.0103825 73.8241571,23.0103825 C71.0753864,23.0103825 70.5223063,20.3476942 70.5223063,19.2423819 C70.5223063,15.8537964 72.8034926,14.8508048 74.0125604,14.8508048 C75.4133575,14.8508048 76.91791,15.7319114 76.9342136,17.56436 C76.9342136,17.6693546 76.9342136,17.7717406 76.91791,17.8767352 L76.7613964,17.9804254 L71.905626,17.9804254 Z M74.9654676,17.4268237 C75.3964671,17.4268237 75.4474644,17.2018353 75.4474644,16.9951069 C75.4474644,16.1133482 74.9119921,15.4044718 73.943564,15.4044718 C72.8903576,15.4044718 72.1644604,16.1811707 71.9570799,17.4268237 L74.9654676,17.4268237 Z" id="Shape" fill="#211E1F" fill-rule="nonzero"></path>
                    <path d="M77.3321495,22.3022235 L77.7990818,22.3022235 C78.2815351,22.3022235 78.6272346,22.3022235 78.6272346,21.7302314 L78.6272346,16.8737436 C78.6272346,16.3383365 77.9888546,16.2339941 77.7286507,16.0957404 L77.7286507,15.8374929 C78.9905419,15.3007815 79.6823974,14.8508048 79.8395632,14.8508048 C79.9419492,14.8508048 79.9928161,14.902976 79.9928161,15.0764453 L79.9928161,16.6317996 L80.0294012,16.6317996 C80.4604006,15.9581388 81.1876021,14.8508048 82.2408084,14.8508048 C82.6731122,14.8508048 83.2255401,15.1442679 83.2255401,15.7670617 C83.2255401,16.2339941 82.8981657,16.6500595 82.4143429,16.6500595 C81.8763273,16.6500595 81.8763273,16.2339941 81.2724455,16.2339941 C80.9783303,16.2339941 80.0112065,16.6317996 80.0112065,17.6693546 L80.0112065,21.7302314 C80.0112065,22.3021583 80.3561234,22.3021583 80.8406635,22.3021583 L81.8077874,22.3021583 L81.8077874,22.7515481 C80.856967,22.7338751 80.1337436,22.7169846 79.3889995,22.7169846 C78.6808405,22.7169846 77.9542912,22.7339403 77.3322147,22.7515481 L77.3322147,22.3022235 L77.3321495,22.3022235 Z" id="Path" fill="#211E1F"></path>
                    <path d="M83.9865224,20.3476942 C84.211576,21.4889395 84.9021924,22.4574328 86.1646706,22.4574328 C87.1820092,22.4574328 87.5627939,21.8352911 87.5627939,21.2301051 C87.5627939,19.1902107 83.7960323,19.8469158 83.7960323,17.0642337 C83.7960323,16.0958056 84.5746224,14.85087 86.4750241,14.85087 C87.027452,14.85087 87.7701092,15.0073837 88.44377,15.3536701 L88.5664376,17.1151659 L88.1680451,17.1151659 C87.9958149,16.0273309 87.3913462,15.4046022 86.283947,15.4046022 C85.5926784,15.4046022 84.9366254,15.802473 84.9366254,16.5451954 C84.9366254,18.5694384 88.9459831,17.9453403 88.9459831,20.6588955 C88.9459831,21.7994886 88.029661,23.0105129 85.9728761,23.0105129 C85.2816076,23.0105129 84.4696279,22.7685689 83.8651592,22.4235868 L83.6747342,20.4352766 L83.9865224,20.3476942 Z" id="Path" fill="#211E1F"></path>
                    <path d="M104.55248,13.813902 L104.12135,13.813902 C103.792736,11.7922675 102.358028,10.9790487 100.423128,10.9790487 C98.4341007,10.9790487 95.5477284,12.3093494 95.5477284,16.4576782 C95.5477284,19.9518451 98.0381864,22.4573024 100.698983,22.4573024 C102.409482,22.4573024 103.827887,21.2821459 104.173521,19.4666529 L104.570022,19.569691 L104.173521,22.0934082 C103.447624,22.5440371 101.494529,23.0103825 100.352632,23.0103825 C96.3093629,23.0103825 93.7522561,20.3999306 93.7522561,16.5105015 C93.7522561,12.9667719 96.9144837,10.4247296 100.3017,10.4247296 C101.701258,10.4247296 103.049231,10.8760106 104.380249,11.3429429 L104.55248,13.813902 Z" id="Path" fill="#211E1F"></path>
                    <path d="M105.175991,22.3022235 L105.503365,22.3022235 C105.987905,22.3022235 106.334844,22.3022235 106.334844,21.7302314 L106.334844,12.1034036 C106.334844,10.9791139 106.075292,10.9444853 105.41787,10.7547125 L105.41787,10.4782051 C106.109138,10.2539341 106.83497,9.94214585 107.198278,9.73417836 C107.386681,9.63114021 107.526239,9.54368821 107.577106,9.54368821 C107.682818,9.54368821 107.717316,9.64809585 107.717316,9.78693649 L107.717316,21.7302314 C107.717316,22.3022235 108.096861,22.3022235 108.581402,22.3022235 L108.872973,22.3022235 L108.872973,22.7515481 C108.287939,22.7515481 107.682818,22.7169846 107.059959,22.7169846 C106.438534,22.7169846 105.816327,22.7340055 105.17586,22.7515481 L105.17586,22.3022235 L105.175991,22.3022235 Z" id="Path" fill="#211E1F"></path>
                    <path d="M116.273199,21.7994234 C116.273199,22.1117986 116.46232,22.1287542 116.755783,22.1287542 C116.96375,22.1287542 117.222063,22.1117986 117.447638,22.1117986 L117.447638,22.4756928 C116.703677,22.5441675 115.286511,22.9074096 114.957767,23.0104477 L114.871033,22.9582113 L114.871033,21.5594358 C113.835499,22.4058486 113.039171,23.0104477 111.811191,23.0104477 C110.878044,23.0104477 109.910333,22.4058486 109.910333,20.9548367 L109.910333,16.5281093 C109.910333,16.0787847 109.841793,15.6463506 108.875321,15.5603333 L108.875321,15.2316547 C109.49818,15.214699 110.878109,15.1109435 111.103684,15.1109435 C111.295478,15.1109435 111.295478,15.2316547 111.295478,15.6118524 L111.295478,20.0704694 C111.295478,20.5902904 111.295478,22.0764526 112.797944,22.0764526 C113.385522,22.0764526 114.162874,21.627128 114.888119,21.0238983 L114.888119,16.3715305 C114.888119,16.0272005 114.059183,15.8374277 113.438411,15.6638932 L113.438411,15.3528223 C114.991809,15.2484799 115.961476,15.1108783 116.133054,15.1108783 C116.273134,15.1108783 116.273134,15.2315242 116.273134,15.4226013 L116.273134,21.7994234 L116.273199,21.7994234 Z" id="Path" fill="#211E1F"></path>
                    <path d="M119.712195,16.0958056 C120.402811,15.5081621 121.335894,14.85087 122.287366,14.85087 C124.292697,14.85087 125.501178,16.5986057 125.501178,18.4812691 C125.501178,20.7455649 123.842786,23.0103825 121.36974,23.0103825 C120.091545,23.0103825 119.417884,22.5949692 118.967907,22.4057833 L118.450173,22.8022846 L118.088301,22.6132291 C118.241554,21.5932819 118.329527,20.5902904 118.329527,19.5364319 L118.329527,12.1033383 C118.329527,10.9791139 118.068671,10.9444853 117.412553,10.7547125 L117.412553,10.4782051 C118.105843,10.2539341 118.829654,9.94214585 119.192961,9.73411314 C119.383386,9.631075 119.520922,9.54368821 119.574463,9.54368821 C119.677501,9.54368821 119.711999,9.64809585 119.711999,9.78693649 L119.711999,16.0957404 L119.712195,16.0957404 L119.712195,16.0958056 Z M119.712195,20.797084 C119.712195,21.4544413 120.333619,22.5617753 121.49182,22.5617753 C123.341225,22.5617753 124.118576,20.7455649 124.118576,19.2065794 C124.118576,17.3401542 122.702845,15.7848 121.354219,15.7848 C120.713165,15.7848 120.178345,16.2002132 119.71213,16.5986057 L119.71213,20.797084 L119.712195,20.797084 Z" id="Shape" fill="#211E1F" fill-rule="nonzero"></path>
                </g>
            </g>
        </g>
    </g>
</svg>