<?xml version="1.0" encoding="UTF-8"?>
<svg width="52px" height="41px" viewBox="0 0 52 41" version="1.1" xmlns="http://www.w3.org/2000/svg" xmlns:xlink="http://www.w3.org/1999/xlink">
    <!-- Generator: Sketch 52.6 (67491) - http://www.bohemiancoding.com/sketch -->
    <title>Maestro_2016</title>
    <desc>Created with Sketch.</desc>
    <g id="02-ProductCategory" stroke="none" stroke-width="1" fill="none" fill-rule="evenodd">
        <g id="ProductCategory" transform="translate(-311.000000, -2458.000000)">
            <g id="footer" transform="translate(0.000000, 2153.000000)">
                <g id="Maestro_2016" transform="translate(310.000000, 305.000000)">
                    <g id="Group" transform="translate(50.762625, 25.901596) scale(-1, 1) rotate(-180.000000) translate(-50.762625, -25.901596) translate(49.756490, 25.398528)" fill="#0099DF" fill-rule="nonzero">
                        <path d="M2.01227174,0 L2.01227174,0.61374288 L1.85229614,0.61374288 L1.66716714,0.192171951 L1.48304427,0.61374288 L1.32206253,0.61374288 L1.32206253,0 L1.43575589,0 L1.43575589,0.4628225 L1.60881126,0.0633865598 L1.72652915,0.0633865598 L1.89958452,0.463828636 L1.89958452,0 L2.01227174,0 Z M0.997080647,5.55111512e-17 L0.997080647,0.50910475 L1.20233236,0.50910475 L1.20233236,0.612736745 L0.679141712,0.612736745 L0.679141712,0.50910475 L0.884393429,0.50910475 L0.884393429,5.55111512e-17 L0.997080647,5.55111512e-17 Z" id="Shape"></path>
                    </g>
                    <polygon id="Path" fill="#6C6BBD" points="33.5778248 29.0447643 19.7317854 29.0447643 19.7317854 4.16101195 33.5778248 4.16101195"></polygon>
                    <g id="Group" transform="translate(14.078912, 16.600876) scale(-1, 1) rotate(-180.000000) translate(-14.078912, -16.600876) translate(0.496077, 0.502702)" fill="#EB001B">
                        <path d="M20.1227174,16.0981739 C20.1227174,21.1459576 22.4861305,25.6423788 26.1665756,28.5400501 C23.4751621,30.6589722 20.0784474,31.923685 16.3869349,31.923685 C7.64763874,31.923685 0.563436087,24.8384762 0.563436087,16.0981739 C0.563436087,7.35787161 7.64763874,0.272662821 16.3869349,0.272662821 C20.0784474,0.272662821 23.4751621,1.53737561 26.1665756,3.65629775 C22.4861305,6.55396905 20.1227174,11.0503903 20.1227174,16.0981739" id="Path"></path>
                    </g>
                    <g id="Group" transform="translate(39.171940, 16.600876) scale(-1, 1) rotate(-180.000000) translate(-39.171940, -16.600876) translate(26.092174, 0.502702)" fill="#0099DF">
                        <path d="M26.1595326,16.0981739 C26.1595326,7.35787161 19.07533,0.272662821 10.3360338,0.272662821 C6.64452128,0.272662821 3.24780659,1.53737561 0.555387,3.65629775 C4.23683815,6.55396905 6.6002513,11.0503903 6.6002513,16.0981739 C6.6002513,21.1459576 4.23683815,25.6423788 0.555387,28.5400501 C3.24780659,30.6589722 6.64452128,31.923685 10.3360338,31.923685 C19.07533,31.923685 26.1595326,24.8384762 26.1595326,16.0981739" id="Path"></path>
                    </g>
                    <g id="Group" transform="translate(26.675733, 37.580821) scale(-1, 1) rotate(-180.000000) translate(-26.675733, -37.580821) translate(9.068355, 34.059345)" fill="#231F20" fill-rule="nonzero">
                        <path d="M29.1779402,5.03067935 C29.3620631,5.03067935 29.6266768,4.99546459 29.8289101,4.91597986 L29.5471921,4.05472755 C29.354014,4.13421229 29.1608359,4.16037182 28.9757069,4.16037182 C28.3780622,4.16037182 28.0792398,3.77401565 28.0792398,3.0797819 L28.0792398,0.72341169 L27.1646623,0.72341169 L27.1646623,4.92503508 L28.0701846,4.92503508 L28.0701846,4.4149242 C28.3076327,4.78417606 28.650725,5.03067935 29.1779402,5.03067935 Z M25.799336,4.08994231 L24.3052242,4.08994231 L24.3052242,2.19136392 C24.3052242,1.76979299 24.4541323,1.48807495 24.9119241,1.48807495 C25.1493722,1.48807495 25.4481945,1.56755968 25.7198512,1.72552302 L25.9834588,0.943755446 C25.6936917,0.741522136 25.236906,0.617767424 24.8414946,0.617767424 C23.7598986,0.617767424 23.3825976,1.19830782 23.3825976,2.17425961 L23.3825976,4.08994231 L22.5293944,4.08994231 L22.5293944,4.92503508 L23.3825976,4.92503508 L23.3825976,6.19980923 L24.3052242,6.19980923 L24.3052242,4.92503508 L25.799336,4.92503508 L25.799336,4.08994231 Z M14.0989819,3.19347525 C14.1965771,3.80017518 14.5648228,4.21369702 15.2157928,4.21369702 C15.8043822,4.21369702 16.1826893,3.84444516 16.2792784,3.19347525 L14.0989819,3.19347525 Z M17.2290706,2.82422339 C17.2200154,4.13421229 16.4110822,5.03067935 15.2328971,5.03067935 C14.0023929,5.03067935 13.1411406,4.13421229 13.1411406,2.82422339 C13.1411406,1.48908109 14.0376077,0.61877356 15.2952775,0.61877356 C15.928137,0.61877356 16.5076712,0.776736891 17.0177821,1.20736304 L16.5690455,1.88449248 C16.2179041,1.60277444 15.7691675,1.44481111 15.3475966,1.44481111 C14.7590071,1.44481111 14.2227367,1.71747393 14.0909329,2.47308197 L17.2109602,2.47308197 C17.2200154,2.58778146 17.2290706,2.70147481 17.2290706,2.82422339 Z M21.245565,3.85249424 C20.9910126,4.01146371 20.4728527,4.21369702 19.9365823,4.21369702 C19.4355266,4.21369702 19.1367042,4.02856802 19.1367042,3.72069045 C19.1367042,3.43997854 19.4526309,3.3604938 19.8480423,3.30817474 L20.2786685,3.24680045 C21.193246,3.11399052 21.7466207,2.72763434 21.7466207,1.98913061 C21.7466207,1.1892526 21.0433317,0.617767424 19.830938,0.617767424 C19.1447533,0.617767424 18.5118939,0.793841201 18.0108382,1.16309307 L18.4414644,1.87543726 C18.7493419,1.6379892 19.2071338,1.43575589 19.8399932,1.43575589 C20.4637975,1.43575589 20.7978346,1.61987875 20.7978346,1.94586677 C20.7978346,2.1823087 20.5603865,2.31511864 20.0593308,2.38454201 L19.6287047,2.4459163 C18.6879676,2.57872623 18.1778568,3.00029716 18.1778568,3.68547569 C18.1778568,4.52056846 18.8640414,5.03067935 19.927527,5.03067935 C20.5956013,5.03067935 21.2023012,4.8807651 21.6409764,4.59099797 L21.245565,3.85249424 Z M32.5193174,4.16238409 C32.33117,4.16238409 32.1571085,4.12918161 31.9951207,4.06378278 C31.8341389,3.99737781 31.694286,3.90481331 31.5765681,3.78608928 C31.4588502,3.66736524 31.3662857,3.52449395 31.2988746,3.35848153 C31.2314635,3.19246911 31.198261,3.00935239 31.198261,2.81013748 C31.198261,2.60991645 31.2314635,2.42780585 31.2988746,2.26179343 C31.3662857,2.09578102 31.4588502,1.95290972 31.5765681,1.83418569 C31.694286,1.71546166 31.8341389,1.62289716 31.9951207,1.55649219 C32.1571085,1.49008722 32.33117,1.45789088 32.5193174,1.45789088 C32.7074648,1.45789088 32.8825325,1.49008722 33.0435142,1.55649219 C33.2055021,1.62289716 33.3463611,1.71546166 33.464079,1.83418569 C33.5838092,1.95290972 33.6763737,2.09578102 33.7447909,2.26179343 C33.812202,2.42780585 33.8454045,2.60991645 33.8454045,2.81013748 C33.8454045,3.00935239 33.812202,3.19246911 33.7447909,3.35848153 C33.6763737,3.52449395 33.5838092,3.66736524 33.464079,3.78608928 C33.3463611,3.90481331 33.2055021,3.99737781 33.0435142,4.06378278 C32.8825325,4.12918161 32.7074648,4.16238409 32.5193174,4.16238409 Z M32.5193174,5.03067935 C32.8453055,5.03067935 33.1471462,4.97433574 33.4248397,4.86064239 C33.7025332,4.74795517 33.9429997,4.59200411 34.145233,4.39379534 C34.3484725,4.19558658 34.5064358,3.96115692 34.6211353,3.69151251 C34.7358348,3.42086196 34.7931845,3.12707028 34.7931845,2.81013748 C34.7931845,2.49320468 34.7358348,2.19941301 34.6211353,1.92876246 C34.5064358,1.65911805 34.3484725,1.42368226 34.145233,1.22547349 C33.9429997,1.02726472 33.7025332,0.872319799 33.4248397,0.758626446 C33.1471462,0.645939228 32.8453055,0.58959562 32.5193174,0.58959562 C32.1933294,0.58959562 31.8914887,0.645939228 31.6137952,0.758626446 C31.3361017,0.872319799 31.0976475,1.02726472 30.8964203,1.22547349 C30.6951931,1.42368226 30.5372298,1.65911805 30.4225303,1.92876246 C30.3078308,2.19941301 30.2504811,2.49320468 30.2504811,2.81013748 C30.2504811,3.12707028 30.3078308,3.42086196 30.4225303,3.69151251 C30.5372298,3.96115692 30.6951931,4.19558658 30.8964203,4.39379534 C31.0976475,4.59200411 31.3361017,4.74795517 31.6137952,4.86064239 C31.8914887,4.97433574 32.1933294,5.03067935 32.5193174,5.03067935 Z M8.75841274,2.82422339 C8.75841274,3.56272711 9.2423641,4.16942704 10.0331869,4.16942704 C10.7887949,4.16942704 11.2989058,3.58888665 11.2989058,2.82422339 C11.2989058,2.05956013 10.7887949,1.48002586 10.0331869,1.48002586 C9.2423641,1.48002586 8.75841274,2.08571966 8.75841274,2.82422339 Z M12.1601581,2.82422339 L12.1601581,4.92503508 L11.2465868,4.92503508 L11.2465868,4.4149242 C10.9558135,4.79323128 10.5171382,5.03067935 9.91949354,5.03067935 C8.74130843,5.03067935 7.81868184,4.10805276 7.81868184,2.82422339 C7.81868184,1.54140015 8.74130843,0.617767424 9.91949354,0.617767424 C10.5171382,0.617767424 10.9558135,0.855215489 11.2465868,1.23352258 L11.2465868,0.72341169 L12.1601581,0.72341169 L12.1601581,2.82422339 Z M7.0097486,0.72341169 L7.0097486,3.3604938 C7.0097486,4.35354991 6.37688914,5.02162413 5.35767351,5.03067935 C4.82140309,5.03973457 4.26702222,4.87271602 3.88066605,4.2831204 C3.59089892,4.7489613 3.1331071,5.03067935 2.49119241,5.03067935 C2.04346195,5.03067935 1.60378058,4.89887555 1.26068824,4.40687511 L1.26068824,4.92503508 L0.347116875,4.92503508 L0.347116875,0.72341169 L1.26974347,0.72341169 L1.26974347,3.05261623 C1.26974347,3.78206473 1.67421009,4.16942704 2.29801433,4.16942704 C2.90471426,4.16942704 3.21259183,3.77401565 3.21259183,3.06167145 L3.21259183,0.72341169 L4.13521842,0.72341169 L4.13521842,3.05261623 C4.13521842,3.78206473 4.55779549,4.16942704 5.16348928,4.16942704 C5.78829966,4.16942704 6.08712201,3.77401565 6.08712201,3.06167145 L6.08712201,0.72341169 L7.0097486,0.72341169 Z" id="Shape"></path>
                    </g>
                    <g id="Group" transform="translate(44.846547, 40.063964) scale(-1, 1) rotate(-180.000000) translate(-44.846547, -40.063964) translate(43.840411, 39.057828)" fill="#231F20" fill-rule="nonzero">
                        <path d="M1.00613587,1.00613587 L1.00613587,0.902503875 L1.10171878,0.902503875 C1.12284763,0.902503875 1.14095808,0.907534554 1.15303171,0.915583641 C1.16611147,0.923632728 1.17315442,0.93771863 1.17315442,0.95482294 C1.17315442,0.97192725 1.16611147,0.985007016 1.15303171,0.993056103 C1.14095808,1.00211133 1.12284763,1.00613587 1.10171878,1.00613587 L1.00613587,1.00613587 Z M1.10272491,1.07857765 C1.15202557,1.07857765 1.19025873,1.06751016 1.2174244,1.04537517 C1.24459007,1.02324018 1.25766984,0.993056103 1.25766984,0.95482294 C1.25766984,0.922626592 1.24760848,0.89646706 1.22547349,0.875338207 C1.20434464,0.855215489 1.17315442,0.842135723 1.13391512,0.837105043 L1.26068824,0.691215342 L1.16208693,0.691215342 L1.04436903,0.836098908 L1.00613587,0.836098908 L1.00613587,0.691215342 L0.923632728,0.691215342 L0.923632728,1.07857765 L1.10272491,1.07857765 Z M1.07757152,0.558405408 C1.12284763,0.558405408 1.16510534,0.566454495 1.2033385,0.583558804 C1.2425778,0.600663114 1.27678642,0.623804239 1.30596436,0.652982179 C1.3351423,0.68216012 1.35828342,0.716368739 1.37538773,0.756614174 C1.39148591,0.795853473 1.40054113,0.838111179 1.40054113,0.883387293 C1.40054113,0.928663408 1.39148591,0.970921114 1.37538773,1.01016041 C1.35828342,1.04939971 1.3351423,1.08461447 1.30596436,1.11379241 C1.27678642,1.14297035 1.2425778,1.16611147 1.2033385,1.18220965 C1.16510534,1.19931396 1.12284763,1.20736304 1.07757152,1.20736304 C1.0322954,1.20736304 0.98903156,1.19931396 0.949792261,1.18220965 C0.909546826,1.16611147 0.874332071,1.14297035 0.84515413,1.11379241 C0.81597619,1.08461447 0.792835065,1.04939971 0.776736891,1.01016041 C0.759632582,0.970921114 0.751583495,0.928663408 0.751583495,0.883387293 C0.751583495,0.838111179 0.759632582,0.795853473 0.776736891,0.756614174 C0.792835065,0.716368739 0.81597619,0.68216012 0.84515413,0.652982179 C0.874332071,0.623804239 0.909546826,0.600663114 0.949792261,0.583558804 C0.98903156,0.566454495 1.0322954,0.558405408 1.07757152,0.558405408 Z M1.07757152,1.30093368 C1.13693353,1.30093368 1.19126487,1.28986618 1.2425778,1.2677312 C1.29489686,1.24660234 1.33916684,1.21641827 1.37840614,1.1781851 C1.4166393,1.14095808 1.44682338,1.0966881 1.46895837,1.04537517 C1.49109336,0.995068375 1.50216085,0.940737038 1.50216085,0.883387293 C1.50216085,0.826037549 1.49109336,0.771706212 1.46895837,0.721399418 C1.44682338,0.671092625 1.4166393,0.626822647 1.37840614,0.58959562 C1.33916684,0.551362457 1.29489686,0.52117838 1.2425778,0.499043391 C1.19126487,0.476908402 1.13693353,0.465840908 1.07757152,0.465840908 C1.01720336,0.465840908 0.961865891,0.476908402 0.909546826,0.499043391 C0.857227761,0.52117838 0.811951647,0.551362457 0.773718484,0.58959562 C0.735485321,0.626822647 0.705301245,0.671092625 0.683166255,0.721399418 C0.661031266,0.771706212 0.649963772,0.826037549 0.649963772,0.883387293 C0.649963772,0.940737038 0.661031266,0.995068375 0.683166255,1.04537517 C0.705301245,1.0966881 0.735485321,1.14095808 0.773718484,1.1781851 C0.811951647,1.21641827 0.857227761,1.24660234 0.909546826,1.2677312 C0.961865891,1.28986618 1.01720336,1.30093368 1.07757152,1.30093368 Z" id="Shape"></path>
                    </g>
                </g>
            </g>
        </g>
    </g>
</svg>