<?xml version="1.0" encoding="UTF-8"?>
<svg width="52px" height="41px" viewBox="0 0 52 41" version="1.1" xmlns="http://www.w3.org/2000/svg" xmlns:xlink="http://www.w3.org/1999/xlink">
    <!-- Generator: Sketch 52.6 (67491) - http://www.bohemiancoding.com/sketch -->
    <title>Mastercard-logo</title>
    <desc>Created with Sketch.</desc>
    <g id="02-ProductCategory" stroke="none" stroke-width="1" fill="none" fill-rule="evenodd">
        <g id="ProductCategory" transform="translate(-229.000000, -2458.000000)">
            <g id="footer" transform="translate(0.000000, 2153.000000)">
                <g id="Mastercard-logo" transform="translate(228.000000, 304.000000)">
                    <g id="Group" transform="translate(27.936419, 37.967599) scale(-1, 1) rotate(-180.000000) translate(-27.936419, -37.967599) translate(3.166428, 34.429028)" fill="#231F20" fill-rule="nonzero">
                        <path d="M48.5289612,1.01102002 L48.5289612,0.906884962 L48.6250081,0.906884962 C48.6462395,0.906884962 48.6644378,0.911940062 48.6775811,0.920028222 C48.6897133,0.928116382 48.6967905,0.942270663 48.6967905,0.959458003 C48.6967905,0.976645343 48.6897133,0.989788604 48.6775811,0.997876764 C48.6644378,1.00697594 48.6462395,1.01102002 48.6250081,1.01102002 L48.5289612,1.01102002 Z M48.6260191,1.08381347 C48.6755591,1.08381347 48.7139778,1.07269225 48.7412754,1.05044981 C48.7685729,1.02820736 48.7817162,0.997876764 48.7817162,0.959458003 C48.7817162,0.927105362 48.771606,0.900818842 48.7493635,0.879587421 C48.7281321,0.859367021 48.6978015,0.84622376 48.6573607,0.84116866 L48.7847492,0.694570757 L48.6856693,0.694570757 L48.5673799,0.84015764 L48.5289612,0.84015764 L48.5289612,0.694570757 L48.4460575,0.694570757 L48.4460575,1.08381347 L48.6260191,1.08381347 Z M48.6007436,0.560105093 C48.6462395,0.560105093 48.6887023,0.569204274 48.7271211,0.586391614 C48.7665509,0.603578954 48.8009256,0.626832415 48.8302451,0.656151996 C48.8595647,0.685471576 48.8828182,0.719846257 48.9000055,0.760287058 C48.9161818,0.799716839 48.925281,0.84217968 48.925281,0.887675581 C48.925281,0.933171482 48.9161818,0.975634323 48.9000055,1.0150641 C48.8828182,1.05449389 48.8595647,1.08987959 48.8302451,1.11919917 C48.8009256,1.14851875 48.7665509,1.17177221 48.7271211,1.18895955 C48.6887023,1.20513587 48.6462395,1.21322403 48.6007436,1.21322403 C48.5552477,1.21322403 48.5117738,1.20513587 48.472344,1.18895955 C48.4319032,1.17177221 48.3965175,1.14851875 48.367198,1.11919917 C48.3378784,1.08987959 48.3146249,1.05449389 48.2984486,1.0150641 C48.2812613,0.975634323 48.2731731,0.933171482 48.2731731,0.887675581 C48.2731731,0.84217968 48.2812613,0.799716839 48.2984486,0.760287058 C48.3146249,0.719846257 48.3378784,0.685471576 48.367198,0.656151996 C48.3965175,0.626832415 48.4319032,0.603578954 48.472344,0.586391614 C48.5117738,0.569204274 48.5552477,0.560105093 48.6007436,0.560105093 Z M48.6007436,1.30724889 C48.6603938,1.30724889 48.7149888,1.29612767 48.7675619,1.27388523 C48.8191239,1.25265381 48.8636088,1.22232321 48.9030386,1.18390445 C48.9414573,1.14649671 48.9717879,1.10201183 48.9940304,1.05044981 C49.0162728,0.999898804 49.027394,0.945303723 49.027394,0.887675581 C49.027394,0.83004744 49.0162728,0.775452359 48.9940304,0.724901357 C48.9717879,0.674350356 48.9414573,0.629865475 48.9030386,0.591446714 C48.8636088,0.554038973 48.8191239,0.523708373 48.7675619,0.501465932 C48.7149888,0.479223492 48.6603938,0.468102271 48.6007436,0.468102271 C48.5400824,0.468102271 48.4844763,0.479223492 48.4319032,0.501465932 C48.3793302,0.523708373 48.3338343,0.554038973 48.2954155,0.591446714 C48.2569968,0.629865475 48.2266662,0.674350356 48.2044237,0.724901357 C48.1821813,0.775452359 48.1710601,0.83004744 48.1710601,0.887675581 C48.1710601,0.945303723 48.1821813,0.999898804 48.2044237,1.05044981 C48.2266662,1.10201183 48.2569968,1.14649671 48.2954155,1.18390445 C48.3338343,1.22232321 48.3793302,1.25265381 48.4319032,1.27388523 C48.4844763,1.29612767 48.5400824,1.30724889 48.6007436,1.30724889 Z M9.21039242,2.80659159 C9.21039242,3.54868029 9.69669305,4.15832536 10.4913548,4.15832536 C11.2506308,4.15832536 11.763218,3.57496681 11.763218,2.80659159 C11.763218,2.03821637 11.2506308,1.45485781 10.4913548,1.45485781 C9.69669305,1.45485781 9.21039242,2.06450289 9.21039242,2.80659159 Z M12.6286511,2.80659159 L12.6286511,4.9176014 L11.7106449,4.9176014 L11.7106449,4.40501425 C11.4194712,4.78515777 10.9776554,5.0237585 10.3771095,5.0237585 C9.19320508,5.0237585 8.2650887,4.09564212 8.2650887,2.80659159 C8.2650887,1.51653004 9.19320508,0.589424674 10.3771095,0.589424674 C10.9776554,0.589424674 11.4194712,0.8280254 11.7106449,1.20816893 L11.7106449,0.695581777 L12.6286511,0.695581777 L12.6286511,2.80659159 Z M43.6507895,2.80659159 C43.6507895,3.54868029 44.1370902,4.15832536 44.9317519,4.15832536 C45.692039,4.15832536 46.2036151,3.57496681 46.2036151,2.80659159 C46.2036151,2.03821637 45.692039,1.45485781 44.9317519,1.45485781 C44.1370902,1.45485781 43.6507895,2.06450289 43.6507895,2.80659159 Z M47.0700593,2.80659159 L47.0700593,6.61308198 L46.1510421,6.61308198 L46.1510421,4.40501425 C45.8598683,4.78515777 45.4180526,5.0237585 44.8175067,5.0237585 C43.6336022,5.0237585 42.7054858,4.09564212 42.7054858,2.80659159 C42.7054858,1.51653004 43.6336022,0.589424674 44.8175067,0.589424674 C45.4180526,0.589424674 45.8598683,0.8280254 46.1510421,1.20816893 L46.1510421,0.695581777 L47.0700593,0.695581777 L47.0700593,2.80659159 Z M24.0238578,4.20179922 C24.6153045,4.20179922 24.9954481,3.83075487 25.092506,3.17763594 L22.9016256,3.17763594 C22.9996945,3.78728101 23.3697279,4.20179922 24.0238578,4.20179922 Z M24.0420562,5.0237585 C22.8045677,5.0237585 21.9391345,4.12293966 21.9391345,2.80659159 C21.9391345,1.463957 22.8399534,0.589424674 24.1037284,0.589424674 C24.73966,0.589424674 25.3220075,0.748154818 25.8345947,1.18087139 L25.3846908,1.86128786 C25.0308338,1.57921328 24.5799188,1.41947211 24.1563014,1.41947211 C23.5648547,1.41947211 23.0259811,1.69345854 22.8935374,2.4537456 L26.0287105,2.4537456 C26.0378097,2.56799086 26.0469089,2.68324714 26.0469089,2.80659159 C26.0378097,4.12293966 25.2249496,5.0237585 24.0420562,5.0237585 Z M35.1268797,2.80659159 C35.1268797,3.54868029 35.6131804,4.15832536 36.4078421,4.15832536 C37.1671181,4.15832536 37.6797053,3.57496681 37.6797053,2.80659159 C37.6797053,2.03821637 37.1671181,1.45485781 36.4078421,1.45485781 C35.6131804,1.45485781 35.1268797,2.06450289 35.1268797,2.80659159 Z M38.5451384,2.80659159 L38.5451384,4.9176014 L37.6271322,4.9176014 L37.6271322,4.40501425 C37.3349475,4.78515777 36.8941427,5.0237585 36.2935968,5.0237585 C35.1096924,5.0237585 34.181576,4.09564212 34.181576,2.80659159 C34.181576,1.51653004 35.1096924,0.589424674 36.2935968,0.589424674 C36.8941427,0.589424674 37.3349475,0.8280254 37.6271322,1.20816893 L37.6271322,0.695581777 L38.5451384,0.695581777 L38.5451384,2.80659159 Z M29.942369,2.80659159 C29.942369,1.52562922 30.8340887,0.589424674 32.1949217,0.589424674 C32.8308532,0.589424674 33.2544706,0.730967478 33.7134737,1.09291265 L33.272669,1.83500134 C32.9279112,1.58730144 32.565966,1.45485781 32.1676241,1.45485781 C31.4346346,1.463957 30.8957609,1.99373149 30.8957609,2.80659159 C30.8957609,3.61945169 31.4346346,4.14922618 32.1676241,4.15832536 C32.565966,4.15832536 32.9279112,4.02588174 33.272669,3.77818183 L33.7134737,4.52027053 C33.2544706,4.8822157 32.8308532,5.0237585 32.1949217,5.0237585 C30.8340887,5.0237585 29.942369,4.08755396 29.942369,2.80659159 Z M41.7783805,5.0237585 C41.248606,5.0237585 40.9038481,4.77605859 40.6652474,4.40501425 L40.6652474,4.9176014 L39.7553294,4.9176014 L39.7553294,0.695581777 L40.6743466,0.695581777 L40.6743466,3.06237965 C40.6743466,3.76099449 40.9746195,4.14922618 41.5751654,4.14922618 C41.7611931,4.14922618 41.955309,4.12293966 42.1494248,4.04306908 L42.4325104,4.90850222 C42.2292954,4.9883728 41.9644081,5.0237585 41.7783805,5.0237585 Z M17.1691421,4.58194275 C16.7273263,4.87311652 16.1186922,5.0237585 15.447375,5.0237585 C14.3777158,5.0237585 13.6892111,4.51117135 13.6892111,3.67202473 C13.6892111,2.98352009 14.2017983,2.55889168 15.146091,2.42644806 L15.5798186,2.36477584 C16.0833065,2.29400444 16.3208963,2.16156081 16.3208963,1.92296009 C16.3208963,1.59640062 15.9852376,1.41037293 15.3584052,1.41037293 C14.7224736,1.41037293 14.2634705,1.61358796 13.9540984,1.85218868 L13.5213818,1.13739753 C14.0248698,0.766353178 14.6608014,0.589424674 15.349306,0.589424674 C16.5685962,0.589424674 17.2752992,1.16368405 17.2752992,1.96744497 C17.2752992,2.70953367 16.7192381,3.09776535 15.8002209,3.23020898 L15.3675044,3.29289222 C14.9701735,3.34546526 14.6517022,3.42432482 14.6517022,3.70741043 C14.6517022,4.01678256 14.9519751,4.20179922 15.4554631,4.20179922 C15.9943368,4.20179922 16.5160231,3.9985842 16.7718112,3.83985405 L17.1691421,4.58194275 Z M29.0142527,5.0237585 C28.4844782,5.0237585 28.1397203,4.77605859 27.9021306,4.40501425 L27.9021306,4.9176014 L26.9922126,4.9176014 L26.9922126,0.695581777 L27.9102188,0.695581777 L27.9102188,3.06237965 C27.9102188,3.76099449 28.2104917,4.14922618 28.8110376,4.14922618 C28.9970653,4.14922618 29.1911812,4.12293966 29.385297,4.04306908 L29.6683826,4.90850222 C29.4651676,4.9883728 29.2002803,5.0237585 29.0142527,5.0237585 Z M21.1798585,4.9176014 L19.6784938,4.9176014 L19.6784938,6.19856377 L18.7503774,6.19856377 L18.7503774,4.9176014 L17.8940434,4.9176014 L17.8940434,4.07845478 L18.7503774,4.07845478 L18.7503774,2.15246163 C18.7503774,1.17278323 19.1305209,0.589424674 20.2163564,0.589424674 C20.6146983,0.589424674 21.0737014,0.712769117 21.3648752,0.915984142 L21.0999879,1.70255772 C20.8260015,1.54382758 20.5257285,1.463957 20.2871278,1.463957 C19.8281247,1.463957 19.6784938,1.7470426 19.6784938,2.17065999 L19.6784938,4.07845478 L21.1798585,4.07845478 L21.1798585,4.9176014 Z M7.45323962,0.695581777 L7.45323962,3.34546526 C7.45323962,4.34334202 6.81730802,5.01465932 5.79213372,5.0237585 C5.25326005,5.03285768 4.69719903,4.86502836 4.30795632,4.27257062 C4.01678256,4.74067289 3.55777947,5.0237585 2.91274869,5.0237585 C2.46183376,5.0237585 2.02102903,4.89131488 1.6762712,4.39692609 L1.6762712,4.9176014 L0.757253998,4.9176014 L0.757253998,0.695581777 L1.68435936,0.695581777 L1.68435936,3.03609313 C1.68435936,3.76908265 2.09078941,4.15832536 2.71863285,4.15832536 C3.32827792,4.15832536 3.63663903,3.76099449 3.63663903,3.04519231 L3.63663903,0.695581777 L4.56475541,0.695581777 L4.56475541,3.03609313 C4.56475541,3.76908265 4.9883728,4.15832536 5.59801787,4.15832536 C6.22485029,4.15832536 6.52512324,3.76099449 6.52512324,3.04519231 L6.52512324,0.695581777 L7.45323962,0.695581777 Z" id="Shape"></path>
                    </g>
                    <g id="Group" transform="translate(51.250541, 26.494632) scale(-1, 1) rotate(-180.000000) translate(-51.250541, -26.494632) translate(50.239521, 25.758521)" fill="#F79410" fill-rule="nonzero">
                        <path d="M2.15466074,0 L2.15466074,0.898055556 L1.97799407,0.898055556 L1.77354963,0.281194444 L1.57021629,0.898055556 L1.39243852,0.898055556 L1.39243852,0 L1.51799407,0 L1.51799407,0.677222222 L1.70910518,0.09275 L1.83910518,0.09275 L2.03021629,0.678694444 L2.03021629,0 L2.15466074,0 Z M1.03354963,1.11022302e-16 L1.03354963,0.744944444 L1.26021629,0.744944444 L1.26021629,0.896583333 L0.682438516,0.896583333 L0.682438516,0.744944444 L0.909105183,0.744944444 L0.909105183,1.11022302e-16 L1.03354963,1.11022302e-16 Z" id="Shape"></path>
                    </g>
                    <polygon id="Path" fill="#FF5F00" points="33.9823187 29.4224573 20.0690656 29.4224573 20.0690656 4.41791007 33.9823187 4.41791007"></polygon>
                    <g id="Group" transform="translate(14.388751, 16.918162) scale(-1, 1) rotate(-180.000000) translate(-14.388751, -16.918162) translate(0.739980, 0.741841)" fill="#EB001B">
                        <path d="M20.2204005,16.1763204 C20.2204005,21.2486079 22.5952865,25.7668563 26.2935978,28.678594 C23.5891192,30.8078022 20.1759156,32.0786544 16.4664831,32.0786544 C7.6847632,32.0786544 0.566171214,24.9590513 0.566171214,16.1763204 C0.566171214,7.39358944 7.6847632,0.273986427 16.4664831,0.273986427 C20.1759156,0.273986427 23.5891192,1.5448386 26.2935978,3.67404677 C22.5952865,6.58578444 20.2204005,11.1040329 20.2204005,16.1763204" id="Path"></path>
                    </g>
                    <g id="Group" transform="translate(39.603590, 16.918162) scale(-1, 1) rotate(-180.000000) translate(-39.603590, -16.918162) translate(26.460330, 0.741841)" fill="#F79E1B">
                        <path d="M26.2865206,16.1763204 C26.2865206,7.39358944 19.1679286,0.273986427 10.3862087,0.273986427 C6.67677624,0.273986427 3.26357264,1.5448386 0.558083053,3.67404677 C4.25740532,6.58578444 6.63229136,11.1040329 6.63229136,16.1763204 C6.63229136,21.2486079 4.25740532,25.7668563 0.558083053,28.678594 C3.26357264,30.8078022 6.67677624,32.0786544 10.3862087,32.0786544 C19.1679286,32.0786544 26.2865206,24.9590513 26.2865206,16.1763204" id="Path"></path>
                    </g>
                </g>
            </g>
        </g>
    </g>
</svg>