<?xml version="1.0" encoding="UTF-8"?>
<svg width="64px" height="23px" viewBox="0 0 64 23" version="1.1" xmlns="http://www.w3.org/2000/svg" xmlns:xlink="http://www.w3.org/1999/xlink">
    <!-- Generator: Sketch 52.6 (67491) - http://www.bohemiancoding.com/sketch -->
    <title>mastercard_securecode</title>
    <desc>Created with Sketch.</desc>
    <g id="02-ProductCategory" stroke="none" stroke-width="1" fill="none" fill-rule="evenodd">
        <g id="ProductCategory" transform="translate(-629.000000, -2465.000000)">
            <g id="footer" transform="translate(0.000000, 2153.000000)">
                <g id="mastercard_securecode" transform="translate(629.000000, 312.000000)">
                    <path d="M60.4981333,8.9248 C60.4981333,8.23146667 61.0453333,7.66613333 61.7020444,7.66613333 C62.3768889,7.66613333 62.9056,8.23146667 62.9056,8.9248 C62.9056,9.61777778 62.3768889,10.1831111 61.7020444,10.1831111 C61.0453333,10.2012444 60.4981333,9.63591111 60.4981333,8.9248 Z M61.7020444,9.90933333 C62.2126222,9.90933333 62.6140444,9.47164444 62.6140444,8.94293333 C62.6140444,8.41386667 62.1944889,7.97617778 61.7020444,7.97617778 C61.1911111,7.97617778 60.7900444,8.41386667 60.7900444,8.94293333 C60.7900444,9.47164444 61.1911111,9.90933333 61.7020444,9.90933333 Z M61.5377778,9.49013333 L61.2824889,9.49013333 L61.2824889,8.3776 L61.7383111,8.3776 C61.8296889,8.3776 61.9388444,8.3776 62.0120889,8.432 C62.1031111,8.48675556 62.1397333,8.59626667 62.1397333,8.70577778 C62.1397333,8.83342222 62.0668444,8.94293333 61.9573333,8.9792 L62.1578667,9.47164444 L61.8840889,9.47164444 L61.7201778,9.03395556 L61.5377778,9.03395556 L61.5377778,9.49013333 Z M61.5377778,8.87004444 L61.6835556,8.87004444 C61.7383111,8.87004444 61.7930667,8.87004444 61.8296889,8.85191111 C61.8659556,8.83342222 61.8840889,8.77866667 61.8840889,8.72391111 C61.8840889,8.68764444 61.8659556,8.63288889 61.8296889,8.61475556 C61.7930667,8.59626667 61.7201778,8.59626667 61.6835556,8.59626667 L61.5559111,8.59626667 L61.5377778,8.87004444 Z" id="Fill-1" fill="#FD0C15"></path>
                    <path d="M43.2625778,0.516622222 L42.9344,2.6688 C42.2229333,2.28586667 41.6938667,2.13973333 41.1285333,2.13973333 C39.6330667,2.13973333 38.5749333,3.67182222 38.5749333,5.84248889 C38.5749333,7.33795556 39.2864,8.24995556 40.4536889,8.24995556 C40.9461333,8.24995556 41.4933333,8.08568889 42.1681778,7.73902222 L41.8215111,10.0007111 C41.0737778,10.2197333 40.5994667,10.2926222 40.0341333,10.2926222 C37.8638222,10.2926222 36.5141333,8.65102222 36.5141333,6.02453333 C36.5141333,2.4864 38.3744,0.00568888889 41.0556444,0.00568888889 C41.4019556,0.00568888889 41.712,0.0423111111 41.9676444,0.1152 L42.8064,0.334222222 C43.0254222,0.425244444 43.0801778,0.443733333 43.2625778,0.516622222" id="Fill-2" fill="#FD0C15"></path>
                    <path d="M36.5688889,1.99395556 C36.5141333,1.97582222 36.4412444,1.97582222 36.3683556,1.97582222 C35.7116444,1.97582222 35.3287111,2.32213333 34.7086222,3.28888889 L34.8910222,2.06684444 L33.0670222,2.06684444 L31.8268444,10.1102222 L33.8513778,10.1102222 C34.5806222,5.18577778 34.7630222,4.34666667 35.7297778,4.34666667 C35.7845333,4.34666667 35.8026667,4.34666667 35.8755556,4.34666667 C36.0579556,3.38026667 36.2951111,2.6688 36.6417778,2.01208889 L36.5688889,1.99395556" id="Fill-3" fill="#FD0C15"></path>
                    <path d="M24.5130667,10.0007111 C23.9658667,10.1831111 23.5281778,10.2744889 23.072,10.2744889 C22.0508444,10.2744889 21.4855111,9.65404444 21.4855111,8.50524444 C21.4855111,8.28622222 21.5036444,8.03093333 21.5399111,7.77564444 L21.6675556,6.99128889 L21.7589333,6.35306667 L22.6343111,0.863288889 L24.6407111,0.863288889 L24.4035556,2.04871111 L25.4432,2.04871111 L25.1512889,4.00035556 L24.1297778,4 L23.6010667,7.35608889 C23.5829333,7.50186667 23.5644444,7.61137778 23.5644444,7.68426667 C23.5644444,8.10382222 23.7834667,8.28622222 24.2577778,8.28622222 C24.4949333,8.28622222 24.6588444,8.26808889 24.8046222,8.21333333 L24.5130667,10.0007111" id="Fill-4" fill="#FD0C15"></path>
                    <path d="M16.5607111,4.60195556 C16.5607111,5.62346667 17.0350222,6.31644444 18.0928,6.84551111 C18.8952889,7.24657778 19.0414222,7.37422222 19.0414222,7.73902222 C19.0414222,8.23146667 18.6766222,8.46862222 17.8922667,8.46862222 C17.2903111,8.46862222 16.7431111,8.3776 16.0867556,8.14044444 L15.8129778,10.0007111 L15.9043556,10.0188444 L16.2691556,10.0920889 C16.3968,10.1102222 16.5607111,10.1464889 16.7978667,10.1649778 C17.2721778,10.2012444 17.6551111,10.2378667 17.9104,10.2378667 C20.0263111,10.2378667 21.0112,9.38062222 21.0112,7.55662222 C21.0112,6.46222222 20.6097778,5.80586667 19.5882667,5.31342222 C18.7495111,4.912 18.6581333,4.82097778 18.6581333,4.43768889 C18.6581333,4 18.9866667,3.78133333 19.6430222,3.78133333 C20.0444444,3.78133333 20.5731556,3.83608889 21.0840889,3.90897778 L21.376,2.04871111 C20.8469333,1.95733333 20.0625778,1.88444444 19.6067556,1.88444444 C17.3269333,1.88444444 16.5425778,3.10648889 16.5607111,4.60195556" id="Fill-5" fill="#FD0C15"></path>
                    <path d="M59.3308444,10.0920889 L57.4158222,10.0920889 L57.5068444,9.30773333 C56.9596444,9.92782222 56.3761778,10.2012444 55.6465778,10.2012444 C54.1692444,10.2012444 53.2024889,8.87004444 53.2024889,6.86364444 C53.2024889,4.1824 54.6983111,1.92106667 56.4856889,1.92106667 C57.2700444,1.92106667 57.8535111,2.26737778 58.4188444,3.01511111 L58.8565333,0.188088889 L60.8448,0.188088889 L59.3308444,10.0920889 Z M56.3580444,8.21333333 C57.3063111,8.21333333 57.9630222,7.1008 57.9630222,5.49582222 C57.9630222,4.47431111 57.5800889,3.90897778 56.8867556,3.90897778 C55.9747556,3.90897778 55.3184,5.04 55.3184,6.60835556 C55.3184,7.66613333 55.6647111,8.21333333 56.3580444,8.21333333 Z" id="Fill-6" fill="#FD0C15"></path>
                    <path d="M30.8967111,9.92782222 C30.2033778,10.1464889 29.5470222,10.256 28.8174222,10.256 C26.5738667,10.256 25.3884444,9.01582222 25.3884444,6.64497778 C25.3884444,3.87271111 26.8839111,1.84817778 28.9084444,1.84817778 C30.5681778,1.84817778 31.6263111,2.99697778 31.6263111,4.78435556 C31.6263111,5.36817778 31.5530667,5.95164444 31.3706667,6.77262222 L27.3582222,6.77262222 C27.3400889,6.90026667 27.3400889,6.95502222 27.3400889,7.02791111 C27.3400889,7.97617778 27.9420444,8.45048889 29.1093333,8.45048889 C29.8204444,8.45048889 30.4771556,8.28622222 31.2067556,7.93991111 L30.8967111,9.92782222 Z M29.7656889,5.13102222 C29.7838222,4.96675556 29.7838222,4.82097778 29.7838222,4.7296 C29.7838222,4.07324444 29.4375111,3.68995556 28.8355556,3.68995556 C28.1973333,3.68995556 27.7411556,4.20088889 27.5587556,5.13102222 L29.7656889,5.13102222 Z" id="Fill-7" fill="#FD0C15"></path>
                    <polyline id="Fill-8" fill="#FD0C15" points="8.46293333 10.0920889 6.45653333 10.0920889 7.60568889 2.4864 5.01582222 10.0920889 3.64764444 10.0920889 3.48373333 2.54115556 2.26168889 10.0920889 0.382933333 10.0920889 1.95164444 0.206577778 4.85155556 0.206577778 4.92444444 6.33493333 6.89422222 0.206577778 10.0312889 0.206577778 8.46293333 10.0920889"></polyline>
                    <path d="M13.6608,6.51697778 C13.4421333,6.49884444 13.3507556,6.48071111 13.2049778,6.48071111 C12.0558222,6.48071111 11.4904889,6.90026667 11.4904889,7.70275556 C11.4904889,8.1952 11.7824,8.52337778 12.2200889,8.52337778 C13.0225778,8.52337778 13.6245333,7.70275556 13.6608,6.51697778 Z M15.12,10.0920889 L13.4421333,10.0920889 L13.4784,9.25297778 C12.9678222,9.92782222 12.2929778,10.2197333 11.3628444,10.2197333 C10.2684444,10.2197333 9.52071111,9.32586667 9.52071111,8.03093333 C9.52071111,6.06115556 10.8337778,4.93048889 13.0588444,4.93048889 C13.296,4.93048889 13.5879111,4.94862222 13.8798222,4.98524444 C13.9345778,4.71146667 13.9527111,4.60195556 13.9527111,4.45617778 C13.9527111,3.92711111 13.6060444,3.72657778 12.6577778,3.72657778 C12.0924444,3.72657778 11.4357333,3.81795556 10.9799111,3.96373333 L10.7242667,4.05475556 L10.5422222,4.10951111 L10.8156444,2.304 C11.8186667,1.99395556 12.4935111,1.86631111 13.2231111,1.86631111 C14.9557333,1.86631111 15.8677333,2.68693333 15.8677333,4.21902222 C15.8677333,4.62044444 15.8311111,4.912 15.7034667,5.824 L15.3024,8.68764444 L15.2295111,9.19822222 L15.1747556,9.59964444 L15.1381333,9.8912 L15.12,10.0920889 Z" id="Fill-9" fill="#FD0C15"></path>
                    <path d="M46.7459556,6.51697778 C46.5454222,6.49884444 46.4359111,6.48071111 46.2901333,6.48071111 C45.1409778,6.48071111 44.5575111,6.90026667 44.5575111,7.70275556 C44.5575111,8.1952 44.8494222,8.52337778 45.2871111,8.52337778 C46.1077333,8.52337778 46.7096889,7.70275556 46.7459556,6.51697778 Z M48.2051556,10.0920889 L46.5272889,10.0920889 L46.5635556,9.25297778 C46.0529778,9.92782222 45.3781333,10.2197333 44.448,10.2197333 C43.3536,10.2197333 42.6058667,9.32586667 42.6058667,8.03093333 C42.6058667,6.06115556 43.9192889,4.93048889 46.1443556,4.93048889 C46.3630222,4.93048889 46.6730667,4.94862222 46.9649778,4.98524444 C47.0197333,4.71146667 47.0378667,4.60195556 47.0378667,4.45617778 C47.0378667,3.92711111 46.6912,3.72657778 45.7429333,3.72657778 C45.1776,3.72657778 44.5208889,3.81795556 44.0650667,3.96373333 L43.7731556,4.03662222 L43.5907556,4.09137778 L43.8645333,2.28586667 C44.8675556,1.97582222 45.5424,1.84817778 46.272,1.84817778 C48.0046222,1.84817778 48.9166222,2.6688 48.9166222,4.20088889 C48.9166222,4.60195556 48.88,4.89386667 48.7523556,5.80586667 L48.3328,8.65102222 L48.2780444,9.1616 L48.2232889,9.56302222 L48.1870222,9.8368 L48.2051556,10.0920889 Z" id="Fill-10" fill="#FD0C15"></path>
                    <path d="M53.8410667,1.99395556 C53.7863111,1.97582222 53.7134222,1.97582222 53.6405333,1.97582222 C52.9838222,1.97582222 52.6008889,2.32213333 51.9804444,3.28888889 L52.1628444,2.06684444 L50.3392,2.06684444 L49.0990222,10.1102222 L51.1235556,10.1102222 C51.8528,5.18577778 52.0352,4.34666667 53.0019556,4.34666667 C53.0567111,4.34666667 53.0567111,4.34666667 53.1480889,4.34666667 C53.3301333,3.38026667 53.5857778,2.6688 53.9139556,2.01208889 L53.8410667,1.99395556" id="Fill-11" fill="#FD0C15"></path>
                    <path d="M45.3781333,17.9164444 C45.3781333,19.7404444 44.8128,20.8163556 43.9192889,20.8163556 C43.2625778,20.8344889 42.8796444,20.1048889 42.8796444,19.0289778 C42.8796444,17.7521778 43.4631111,16.2933333 44.3751111,16.2933333 C45.1228444,16.2933333 45.3781333,17.0773333 45.3781333,17.9164444 Z M47.3664,17.9345778 C47.3664,15.9100444 46.3630222,14.3235556 44.4842667,14.3235556 C42.3139556,14.3235556 40.9098667,16.2385778 40.9098667,19.0656 C40.9098667,21.0897778 41.7486222,22.7498667 43.7912889,22.7498667 C45.8524444,22.7498667 47.3664,21.2906667 47.3664,17.9345778 Z" id="Fill-12" fill="#F3AE12"></path>
                    <path d="M41.5480889,12.9187556 L41.2380444,15.0712889 C40.5632,14.688 40.0888889,14.5422222 39.5598222,14.5422222 C38.1557333,14.5422222 37.1708444,16.0743111 37.1708444,18.2446222 C37.1708444,19.7400889 37.8272,20.6520889 38.9216,20.6520889 C39.3959111,20.6520889 39.9064889,20.4881778 40.5265778,20.1415111 L40.1984,22.4032 C39.5050667,22.6218667 39.0492444,22.6947556 38.5201778,22.6947556 C36.496,22.6947556 35.2192,21.0535111 35.2192,18.4270222 C35.2192,14.8885333 36.9699556,12.4081778 39.4688,12.4081778 C39.7969778,12.4081778 40.0707556,12.4448 40.3079111,12.5176889 L41.0737778,12.7367111 C41.3290667,12.8096 41.3838222,12.8277333 41.5480889,12.9187556" id="Fill-13" fill="#F3AE12"></path>
                    <path d="M29.0908444,14.3779556 C29.0360889,14.3598222 28.9632,14.3598222 28.8903111,14.3598222 C28.2702222,14.3598222 27.9235556,14.7064889 27.3400889,15.6728889 L27.5224889,14.4508444 L25.8261333,14.4508444 L24.6769778,22.4942222 L26.5557333,22.4942222 C27.2305778,17.5697778 27.4129778,16.7310222 28.3064889,16.7310222 C28.3612444,16.7310222 28.3612444,16.7310222 28.4526222,16.7491556 C28.6165333,15.7824 28.8536889,15.0712889 29.1637333,14.4145778 L29.0908444,14.3779556" id="Fill-14" fill="#F3AE12"></path>
                    <path d="M53.6768,22.4213333 L51.8894222,22.4213333 L51.9804444,21.6369778 C51.4698667,22.2570667 50.9226667,22.5308444 50.2296889,22.5308444 C48.8618667,22.5308444 47.9498667,21.1992889 47.9498667,19.1932444 C47.9498667,16.512 49.3543111,14.2503111 51.0140444,14.2503111 C51.7432889,14.2503111 52.3089778,14.5969778 52.8195556,15.3628444 L53.2391111,12.5358222 L55.0993778,12.5358222 L53.6768,22.4213333 Z M50.8864,20.5244444 C51.7799111,20.5244444 52.3818667,19.4119111 52.3818667,17.8069333 C52.3818667,16.7857778 52.0352,16.2385778 51.3788444,16.2385778 C50.5216,16.2385778 49.9196444,17.3511111 49.9196444,18.9376 C49.9196444,19.9957333 50.2478222,20.5244444 50.8864,20.5244444 Z" id="Fill-15" fill="#F3AE12"></path>
                    <path d="M11.4357333,22.3847111 C10.7975111,22.6037333 10.1774222,22.7132444 9.50257778,22.7132444 C7.4048,22.7132444 6.31075556,21.4730667 6.31075556,19.1018667 C6.31075556,16.3477333 7.7152,14.3050667 9.5936,14.3050667 C11.1438222,14.3050667 12.1287111,15.4357333 12.1287111,17.2416 C12.1287111,17.8254222 12.0558222,18.4088889 11.8915556,19.2295111 L8.15288889,19.2295111 C8.1344,19.3571556 8.1344,19.4119111 8.1344,19.4848 C8.1344,20.4149333 8.70008889,20.8892444 9.79448889,20.8892444 C10.4689778,20.8892444 11.0709333,20.7253333 11.7457778,20.3786667 L11.4357333,22.3847111 Z M10.3779556,17.5879111 C10.3779556,17.424 10.3960889,17.2782222 10.3960889,17.1868444 C10.3960889,16.5301333 10.0679111,16.1472 9.50257778,16.1472 C8.90062222,16.1472 8.48106667,16.6577778 8.29866667,17.5879111 L10.3779556,17.5879111 Z" id="Fill-16" fill="#F3AE12"></path>
                    <path d="M33.8328889,22.3847111 C33.1946667,22.6037333 32.5745778,22.7132444 31.8997333,22.7132444 C29.7838222,22.7132444 28.6897778,21.4730667 28.6897778,19.1018667 C28.6897778,16.3477333 30.0938667,14.3050667 31.9726222,14.3050667 C33.5228444,14.3050667 34.5262222,15.4357333 34.5262222,17.2416 C34.5262222,17.8254222 34.4533333,18.4088889 34.2890667,19.2295111 L30.5500444,19.2295111 C30.5315556,19.3571556 30.5315556,19.4119111 30.5315556,19.4848 C30.5315556,20.4149333 31.0972444,20.8892444 32.1916444,20.8892444 C32.8664889,20.8892444 33.4684444,20.7253333 34.1429333,20.3786667 L33.8328889,22.3847111 Z M32.7751111,17.5879111 C32.7932444,17.424 32.7932444,17.2782222 32.7932444,17.1868444 C32.7932444,16.5301333 32.4650667,16.1472 31.8997333,16.1472 C31.2977778,16.1472 30.8782222,16.6577778 30.6958222,17.5879111 L32.7751111,17.5879111 Z" id="Fill-17" fill="#F3AE12"></path>
                    <path d="M60.0970667,22.3847111 C59.4403556,22.6037333 58.8202667,22.7132444 58.1635556,22.7132444 C56.0661333,22.7132444 54.9536,21.4730667 54.9536,19.1018667 C54.9536,16.3477333 56.3580444,14.3050667 58.2549333,14.3050667 C59.8051556,14.3050667 60.7900444,15.4357333 60.7900444,17.2416 C60.7900444,17.8254222 60.7171556,18.4088889 60.5528889,19.2295111 L56.8138667,19.2295111 C56.7957333,19.3571556 56.7957333,19.4119111 56.7957333,19.4848 C56.7957333,20.4149333 57.3610667,20.8892444 58.4554667,20.8892444 C59.1303111,20.8892444 59.7322667,20.7253333 60.4071111,20.3786667 L60.0970667,22.3847111 Z M59.0389333,17.5879111 C59.0389333,17.424 59.0574222,17.2782222 59.0574222,17.1868444 C59.0574222,16.5301333 58.7288889,16.1472 58.1635556,16.1472 C57.5616,16.1472 57.1420444,16.6577778 56.9596444,17.5879111 L59.0389333,17.5879111 Z" id="Fill-18" fill="#F3AE12"></path>
                    <path d="M5.85457778,14.7427556 C5.48977778,14.4874667 4.9792,14.2869333 4.28622222,14.2869333 C3.52,14.2869333 2.91804444,14.4508444 2.91804444,15.2533333 C2.91804444,16.6762667 5.69066667,16.1472 5.69066667,19.2113778 C5.69066667,22.0017778 3.86666667,22.7313778 2.20693333,22.7313778 C1.47733333,22.7313778 0.620088889,22.4942222 0,22.2023111 L0.455822222,20.1596444 C0.839111111,20.5063111 1.58684444,20.7434667 2.22506667,20.7434667 C2.82702222,20.7434667 3.73902222,20.5792 3.73902222,19.5395556 C3.73902222,17.9164444 0.966755556,18.5184 0.966755556,15.6728889 C0.966755556,13.0648889 2.58986667,12.2986667 4.15857778,12.2986667 C5.03395556,12.2986667 5.87306667,12.4263111 6.34702222,12.7548444 L5.85457778,14.7427556" id="Fill-19" fill="#F3AE12"></path>
                    <path d="M16.944,22.3847111 C16.5607111,22.5671111 16.032,22.6951111 15.2657778,22.6951111 C13.6245333,22.6951111 12.6030222,21.0535111 12.6030222,19.0471111 C12.6030222,16.4206222 14.0803556,14.3416889 16.2506667,14.3416889 C16.7249778,14.3416889 17.4545778,14.5422222 18.0199111,14.8704 L17.6003556,16.7857778 C17.1992889,16.512 16.7797333,16.3477333 16.3420444,16.3477333 C15.3386667,16.3477333 14.6094222,17.2782222 14.6094222,18.9194667 C14.6094222,19.8680889 15.1381333,20.6520889 15.9591111,20.6520889 C16.4515556,20.6520889 16.7978667,20.5429333 17.2174222,20.3057778 L16.944,22.3847111" id="Fill-20" fill="#F3AE12"></path>
                    <path d="M23.984,20.3601778 C23.8929778,21.0535111 23.8016,21.7283556 23.7468444,22.4394667 L21.9413333,22.4394667 L22.0871111,21.1445333 L22.0689778,21.1445333 C21.5036444,22.0202667 20.9198222,22.6218667 19.8801778,22.6218667 C18.7495111,22.6218667 18.1294222,21.4183111 18.1294222,19.8680889 C18.1294222,19.3208889 18.1656889,19.0289778 18.2752,18.1898667 L18.7861333,14.4693333 L20.8103111,14.4693333 L20.2634667,18.208 C20.2087111,18.6094222 20.1358222,19.0108444 20.1358222,19.4300444 C20.1358222,19.9043556 20.3544889,20.3786667 20.9016889,20.3420444 C21.7226667,20.3420444 22.2147556,19.3390222 22.3608889,18.1536 L22.9262222,14.4693333 L24.8778667,14.4693333 L23.984,20.3601778" id="Fill-21" fill="#F3AE12"></path>
                    <polyline id="Fill-22" fill="#F3AE12" points="61.9754667 22.3484444 61.6654222 22.3484444 61.6654222 21.0168889 61.2277333 21.0168889 61.2277333 20.7253333 62.4131556 20.7253333 62.4131556 21.0168889 61.9754667 21.0168889 61.9754667 22.3484444"></polyline>
                    <polyline id="Fill-23" fill="#F3AE12" points="64 22.3484444 63.7080889 22.3484444 63.7080889 20.9987556 63.4346667 22.3484444 63.1427556 22.3484444 62.8693333 20.9987556 62.8693333 22.3484444 62.5774222 22.3484444 62.5774222 20.7253333 63.0332444 20.7253333 63.2888889 22.0017778 63.3070222 22.0017778 63.5623111 20.7253333 64 20.7253333 64 22.3484444"></polyline>
                </g>
            </g>
        </g>
    </g>
</svg>