<?xml version="1.0" encoding="UTF-8"?>
<svg width="59px" height="20px" viewBox="0 0 59 20" version="1.1" xmlns="http://www.w3.org/2000/svg" xmlns:xlink="http://www.w3.org/1999/xlink">
    <!-- Generator: Sketch 52.6 (67491) - http://www.bohemiancoding.com/sketch -->
    <title>Visa_Inc._logo</title>
    <desc>Created with Sketch.</desc>
    <g id="02-ProductCategory" stroke="none" stroke-width="1" fill="none" fill-rule="evenodd">
        <g id="ProductCategory" transform="translate(-543.000000, -2466.000000)">
            <g id="footer" transform="translate(0.000000, 2153.000000)">
                <g id="Visa_Inc._logo" transform="translate(543.000000, 313.000000)">
                    <polygon id="polygon9" fill="#00579F" points="25.507234 18.9235796 20.7608254 18.9235796 23.7295694 0.567097084 28.4757184 0.567097084"></polygon>
                    <path d="M42.7133866,1.0158607 C41.7771863,0.644443272 40.2922952,0.234352745 38.4562317,0.234352745 C33.7690008,0.234352745 30.4682911,2.73382855 30.4480461,6.30732625 C30.4091135,8.94384496 32.8112577,10.4082315 34.6078695,11.2873306 C36.4441926,12.1856365 37.0684126,12.7719622 37.0684126,13.5726769 C37.049725,14.8024294 35.5845598,15.3692887 34.2180239,15.3692887 C32.3230423,15.3692887 31.3076789,15.0770343 29.7646485,14.3928579 L29.1396497,14.0995654 L28.4754588,18.2201965 C29.5886729,18.7273591 31.6396446,19.1774205 33.7690008,19.1971463 C38.7492647,19.1971463 41.9915754,16.7363436 42.0299889,12.9282118 C42.0489361,10.838567 40.7805106,9.23739711 38.0458816,7.92900069 C36.3857936,7.08909376 35.3691325,6.52275355 35.3691325,5.6633803 C35.3885988,4.8821319 36.2290248,4.08193627 38.1029828,4.08193627 C39.6460133,4.04274407 40.7797319,4.4136424 41.6385861,4.78480028 L42.0678834,4.97972306 L42.7133866,1.0158607 Z" id="path11" fill="#00579F"></path>
                    <path d="M49.0217728,12.4205302 C49.4126566,11.3659746 50.9167544,7.28453564 50.9167544,7.28453564 C50.8970286,7.32372783 51.3068595,6.21051374 51.5412341,5.52711605 L51.8729402,7.10881963 C51.8729402,7.10881963 52.7717652,11.5027579 52.9669475,12.4205302 C52.2251509,12.4205302 49.9592709,12.4205302 49.0217728,12.4205302 Z M54.8806168,0.567097084 L51.2092684,0.567097084 C50.0771071,0.567097084 49.2169552,0.898803219 48.7284802,2.09014215 L41.6782974,18.9233201 L46.6585613,18.9233201 C46.6585613,18.9233201 47.4784828,16.6576997 47.6547179,16.1697439 C48.2010727,16.1697439 53.045851,16.1697439 53.748715,16.1697439 C53.8849793,16.8142089 54.3150552,18.9233201 54.3150552,18.9233201 L58.7097722,18.9233201 L54.8806168,0.567097084 Z" id="path13" fill="#00579F" fill-rule="nonzero"></path>
                    <path d="M16.796444,0.567097084 L12.1481457,13.0844615 L11.6402045,10.5457935 C10.7808312,7.61650132 8.08565401,4.43388738 5.07797741,2.85140514 L9.33565146,18.9041133 L14.354848,18.9041133 L21.815381,0.567097084 L16.796444,0.567097084 Z" id="path15" fill="#00579F"></path>
                    <path d="M7.83181316,0.567097084 L0.195304636,0.567097084 L0.117179796,0.937995414 C6.07413402,2.46130003 10.0193087,6.13316755 11.6402045,10.5465722 L9.98011651,2.11012758 C9.70680934,0.937735863 8.86690242,0.605770178 7.83181316,0.567097084 Z" id="path17" fill="#FAA61A"></path>
                </g>
            </g>
        </g>
    </g>
</svg>